<?xml version="1.0" encoding="utf-8"?>
<!-- Generator: Adobe Illustrator 21.1.0, SVG Export Plug-In . SVG Version: 6.00 Build 0)  -->
<svg version="1.1" id="レイヤー_1" xmlns="http://www.w3.org/2000/svg" xmlns:xlink="http://www.w3.org/1999/xlink" x="0px"
	 y="0px" viewBox="0 0 111 28" style="enable-background:new 0 0 111 28;" xml:space="preserve">
<style type="text/css">
	.st0{fill:#716F70;}
	.st1{fill:#0C68B3;}
</style>
<g>
	<path class="st0" d="M110,9c-1.8,0-3.6,0-5.4,0c-1,0-1.9,0-2.9,0c-0.2,0-0.2,0.1-0.2,0.2c0,0.6,0,1.1,0,1.7c0,0.3,0,0.3,0.3,0.3
		c2.1,0,4.2,0,6.3,0c0.2,0,0.3,0.1,0.3,0.3c0,0.9,0,1.8,0,2.7c0,1.5,0,3,0,4.5c0,0.7,0.1,1.5-0.1,2.2c-0.2,0.9-0.7,1.4-1.6,1.4
		c-0.7,0-1.3,0-2,0c-0.2,0-0.2-0.1-0.2-0.3c0-0.6,0-1.1,0-1.7c0-0.2,0-0.2,0.2-0.2c0.4,0,0.7,0,1.1,0c0.4,0,0.5-0.1,0.5-0.5
		c0-1,0-1.9,0-2.9c0-1.1,0-2.2,0-3.4c0-0.2,0-0.2-0.2-0.2c-1.4,0-2.8,0-4.3,0c-0.2,0-0.3,0.1-0.3,0.3c0,1.5,0,3,0,4.4
		c0,1.6,0,3.1,0,4.7c0,0.4,0,0.8,0,1.2c0,0.2,0,0.2-0.2,0.2c-0.6,0-1.1,0-1.7,0c-0.2,0-0.2-0.1-0.2-0.2c0-1.1,0-2.3,0-3.4
		c0-2.3,0-4.6,0-6.9c0-0.2,0-0.3-0.3-0.3c-1.4,0-2.8,0-4.1,0c-0.2,0-0.2,0.1-0.2,0.3c0,2.9,0,5.9,0,8.8c0,0.2,0,0.3-0.3,0.3
		c-0.5,0-1,0-1.6,0c-0.2,0-0.3,0-0.3-0.3c0-3.3,0-6.7,0-10c0-0.3,0-0.5,0-0.8c0-0.2,0-0.3,0.2-0.2c1.1,0,2.2,0,3.3,0c1,0,2,0,3,0
		c0.2,0,0.3-0.1,0.3-0.3c0-0.6,0-1.2,0-1.8c0-0.2-0.1-0.2-0.2-0.2c-2.6,0-5.2,0-7.9,0C91,9,91,9,91,8.7c0-0.5,0-1,0-1.5
		C91,7,91,6.9,91.2,6.9c2,0,4,0,6,0c0.6,0,1.3,0,1.9,0c0.2,0,0.3-0.1,0.3-0.3c0-0.5,0-1,0-1.4c0-0.2,0-0.2,0.2-0.2
		c0.6,0,1.1,0,1.7,0c0.2,0,0.2,0.1,0.2,0.2c0,0.5,0,1,0,1.4c0,0.2,0,0.3,0.3,0.3c2.7,0,5.3,0,8,0c0.1,0,0.2,0,0.2,0
		C110,7.6,110,8.3,110,9z"/>
	<path class="st1" d="M7.9,16.1c-0.3-0.3-0.6-0.5-0.9-0.8c-2.2-1.7-4.3-3.4-6.5-5.1c-0.1-0.1-0.1-0.1,0-0.2c2.9-2.3,5.8-4.6,8.6-6.9
		c0.8-0.7,1.7-1.4,2.5-2c0.3-0.2,0.5-0.4,0.8-0.5c0.5-0.3,1.1-0.3,1.6-0.1c0.6,0.2,1.2,0.2,1.8,0c0.7-0.3,1.3-0.1,1.9,0.3
		c0.7,0.4,1.4,1,2,1.5c3.2,2.6,6.5,5.2,9.7,7.8c0,0,0.1,0.1,0.1,0.1c-2.2,2.1-4.8,2.3-7.5,1.7c0,0,0.1,0.1,0.1,0.1
		c2.4,2,4.8,3.9,7.2,5.9c0.1,0.1,0.2,0.1,0,0.3c-3.3,2.7-6.6,5.3-9.9,8c-2.7,2.2-6.5,2.2-9.1,0c-3.3-2.7-6.6-5.3-9.8-7.9
		c-0.2-0.2-0.2-0.2,0-0.4c1.2-1.1,2.7-1.7,4.4-1.8c1-0.1,1.9,0,2.8,0.2C7.8,16.1,7.8,16.1,7.9,16.1z M28.4,10.2
		c-0.1-0.1-0.1-0.1-0.2-0.2c-3-2.4-6-4.8-9-7.2c-0.6-0.5-1.2-1-1.9-1.4c-0.4-0.2-0.8-0.3-1.2-0.1c-0.7,0.3-1.5,0.3-2.2,0
		c-0.4-0.1-0.7-0.1-1,0.1c-0.5,0.2-0.9,0.5-1.3,0.9C8.3,4.8,5.1,7.4,1.8,10c-0.1,0.1-0.2,0.2,0,0.3c2.4,1.9,4.7,3.8,7.1,5.7
		c1.1,0.9,2.1,1.7,3.2,2.6c1.2,0.9,2.5,1.2,4,0.9c1.6-0.3,2.8-1.7,3-3.3c0.1-1.4-0.3-2.5-1.5-3.3c-0.2-0.1-0.2-0.1-0.3,0.1
		c-1,2.4-4.1,2.9-5.8,0.9c-1.5-1.7-1-4.3,1-5.4c1.1-0.6,2.2-0.7,3.3-0.5c1.2,0.2,2.3,0.8,3.2,1.5c1.4,1.1,3.1,1.8,4.9,1.9
		c1.3,0.1,2.5-0.1,3.6-0.6C27.9,10.6,28.1,10.4,28.4,10.2z"/>
	<path class="st0" d="M66,14.8c0-2.9,0-5.9,0-8.8c0-0.2,0.1-0.3,0.3-0.3c5.7,0,11.4,0,17.2,0c0.2,0,0.3,0.1,0.3,0.3
		c0,5.4,0,10.8,0,16.2c0,1.2-0.6,1.8-1.8,1.8c-0.7,0-1.3,0-2,0c-0.2,0-0.2,0-0.2-0.2c0-0.6,0-1.1,0-1.7c0-0.2,0-0.2,0.2-0.2
		c0.4,0,0.8,0,1.1,0c0.4,0,0.6-0.1,0.6-0.6c0-0.1,0-0.1,0-0.2c0-4.4,0-8.8,0-13.2c0-0.3-0.1-0.3-0.3-0.3c-4.4,0-8.7,0-13.1,0
		c-0.2,0-0.3,0.1-0.3,0.3c0,5.2,0,10.5,0,15.7c0,0.3-0.1,0.3-0.3,0.3c-0.5,0-1,0-1.5,0c-0.2,0-0.3-0.1-0.3-0.3
		C66,20.8,66,17.8,66,14.8z"/>
	<path class="st0" d="M54.8,10.4c0.9,0,1.8,0,2.7,0c0.4,0,0.3-0.1,0.3,0.3c0,1,0,1.9,0,2.9c0,0.2,0,0.3,0.3,0.3c0.4,0,0.4,0,0.4,0.4
		c0,0.4,0,0.8,0,1.2c0,0.2,0,0.2-0.2,0.2c-0.5,0-0.5,0-0.5,0.5c0,0.9,0,1.9,0,2.8c0,0.4,0.1,0.3-0.3,0.3c-0.9,0-1.9,0-2.8,0
		c-0.2,0-0.3,0-0.3,0.3c0,1,0,1.9,0,2.9c0,1-0.5,1.5-1.4,1.6c-0.7,0.1-1.3,0-2,0c-0.1,0-0.2-0.1-0.2-0.2c0-0.5,0-1,0-1.5
		c0-0.1,0.1-0.2,0.2-0.2c0.3,0,0.6,0,0.9,0c0.4-0.1,0.5-0.2,0.5-0.6c0-0.7,0-1.4,0-2.2c0-0.2-0.1-0.2-0.2-0.2c-1.1,0-2.2,0-3.2,0
		c-0.2,0-0.3,0-0.3-0.3c0-0.4,0-0.9,0-1.3c0-0.2,0-0.2,0.2-0.2c1.1,0,2.2,0,3.3,0c0.2,0,0.3-0.1,0.3-0.3c0-0.4,0-0.9,0-1.3
		c0-0.2,0-0.2-0.2-0.2c-1.1,0-2.2,0-3.3,0c-0.2,0-0.3,0-0.3-0.3c0-0.4,0-0.9,0-1.3c0-0.2,0.1-0.2,0.2-0.2c1.1,0,2.2,0,3.3,0
		c0.2,0,0.3,0,0.2-0.2c0-0.4,0-0.8,0-1.2c0-0.2,0-0.2-0.2-0.2c-1.1,0-2.2,0-3.2,0c-0.2,0-0.3,0-0.3-0.3c0-0.4,0-0.9,0-1.3
		c0-0.2,0.1-0.2,0.2-0.2c0.9,0,1.9,0,2.8,0c0.1,0,0.2,0,0.3-0.1c1-0.8,2-1.8,2.6-3c0-0.1,0.1-0.1,0.1-0.2c0,0,0-0.1,0-0.1
		c-0.1-0.1-0.1,0-0.2,0c-0.7,0-1.5,0-2.2,0c-0.2,0-0.3,0.1-0.4,0.2c-0.7,1.1-1.7,2-2.9,2.5c-0.3,0.1-0.3,0.1-0.3-0.2
		c0-0.5,0-1,0-1.5c0-0.1,0-0.2,0.2-0.3c0.8-0.5,1.4-1.3,1.8-2.2c0.1-0.1,0.1-0.2,0.3-0.2c2.1,0,4.3,0,6.4,0c0.2,0,0.2,0.1,0.2,0.2
		c-0.4,1.7-1.2,3.2-2.4,4.5C54.9,10.2,54.8,10.3,54.8,10.4C54.8,10.4,54.8,10.4,54.8,10.4z M54.4,16.5c0,0.2,0,0.5,0,0.7
		c0,0.1,0,0.2,0.2,0.2c0.4,0,0.9,0,1.3,0c0.1,0,0.2,0,0.2-0.2c0-0.5,0-1,0-1.5c0-0.1,0-0.2-0.2-0.2c-0.4,0-0.9,0-1.3,0
		c-0.1,0-0.2,0-0.2,0.2C54.4,16,54.4,16.3,54.4,16.5z M56,13c0-0.2,0-0.5,0-0.7c0-0.1,0-0.2-0.2-0.2c-0.4,0-0.9,0-1.3,0
		c-0.1,0-0.1,0-0.1,0.1c0,0.5,0,0.9,0,1.4c0,0.1,0,0.1,0.1,0.1c0.4,0,0.9,0,1.3,0c0.1,0,0.2,0,0.2-0.2C56,13.5,56,13.3,56,13z"/>
	<path class="st0" d="M79.2,8.7c-0.2,0.8-0.5,1.6-0.8,2.4c0.6,0,1.2,0,1.8,0c0.2,0,0.3,0.1,0.3,0.3c0,0.4,0,0.9,0,1.3
		c0,0.3-0.1,0.3-0.3,0.3c-1.4,0-2.7,0-4.1,0c-0.2,0-0.2,0-0.2,0.2c0,1.8,0,3.7,0,5.5c0,0.2,0,0.2,0.2,0.2c0.5,0,1,0,1.4,0
		c0.2,0,0.3,0,0.3-0.3c0-1.3,0-2.6,0-3.9c0-0.2,0.1-0.3,0.3-0.3c0.5,0,1,0,1.5,0c0.1,0,0.2,0,0.2,0.2c0,2,0,3.9,0,5.9
		c0,0.2-0.1,0.2-0.2,0.2c-2.2,0-4.3,0-6.5,0c-1,0-1.9,0-2.9,0c-0.2,0-0.2,0-0.2-0.2c0-1.9,0-3.9,0-5.8c0-0.2,0.1-0.2,0.2-0.2
		c0.5,0,1,0,1.5,0c0.2,0,0.2,0,0.2,0.2c0,1.3,0,2.6,0,3.9c0,0.2,0.1,0.3,0.3,0.3c0.5,0,1,0,1.5,0c0.1,0,0.2,0,0.2-0.2
		c0-1.9,0-3.8,0-5.6c0-0.2-0.1-0.2-0.2-0.2c-1.4,0-2.8,0-4.2,0c-0.2,0-0.3-0.1-0.3-0.3c0-0.5,0-0.9,0-1.4c0-0.1,0-0.2,0.2-0.2
		c0.6,0,1.2,0,1.7,0c0.2,0,0.3,0,0.2-0.2c-0.2-0.7-0.4-1.3-0.6-2c-0.1-0.2-0.1-0.2,0.1-0.2c0.6,0,1.2,0,1.8,0c0.1,0,0.2,0,0.2,0.2
		c0.2,0.7,0.4,1.3,0.5,2c0,0.2,0.1,0.3,0.3,0.2c0.7,0,1.5,0,2.2,0c0.2,0,0.3,0,0.3-0.2c0.2-0.7,0.5-1.3,0.6-2c0-0.2,0.1-0.2,0.3-0.2
		C77.9,8.7,78.6,8.7,79.2,8.7z"/>
	<path class="st0" d="M39.6,18.8c0-1.6,0-3.3,0-4.9c0-0.2,0.1-0.3,0.3-0.3c2.5,0,4.9,0,7.4,0c0.2,0,0.3,0,0.3,0.3c0,2.8,0,5.6,0,8.4
		c0,0.2,0,0.4-0.1,0.6c-0.1,0.5-0.4,0.8-0.9,1C45.7,24,45,24,44.3,24c-0.1,0-0.1-0.1-0.1-0.1c0-0.5,0-1,0-1.5c0-0.1,0.1-0.2,0.2-0.1
		c0.2,0,0.5,0,0.7,0c0.3-0.1,0.5-0.2,0.5-0.5c0-0.3,0-0.6,0-0.9c0-0.1,0-0.1-0.2-0.1c-1.2,0-2.5,0-3.7,0c-0.2,0-0.2,0.1-0.2,0.2
		c0,1,0,2,0,3c0,0.2-0.1,0.2-0.2,0.2c-0.5,0-1,0-1.4,0c-0.2,0-0.3,0-0.3-0.3C39.6,22.1,39.6,20.4,39.6,18.8z M43.5,17.8
		c-0.4,0-0.8,0-1.2,0c-0.3,0-0.6-0.1-0.8,0c-0.2,0.2,0,0.5-0.1,0.8c0,0.2,0.1,0.2,0.2,0.2c1,0,2,0,2.9,0c0.3,0,0.6,0.1,0.8,0
		c0.2-0.2,0-0.5,0.1-0.8c0-0.2-0.1-0.2-0.2-0.2C44.7,17.9,44.1,17.8,43.5,17.8z M43.5,15.2c-0.5,0-1,0-1.5,0c-0.5,0-0.5,0-0.5,0.5
		c0,0.5,0,0.5,0.5,0.5c1.1,0,2.2,0,3.3,0c0.2,0,0.2,0,0.2-0.2c0-0.2,0-0.4,0-0.6c0-0.2,0-0.2-0.2-0.2C44.7,15.2,44.1,15.2,43.5,15.2
		z"/>
	<path class="st0" d="M43.3,12.5c-1.4,0-2.8,0-4.2,0c-0.2,0-0.2,0-0.2-0.2c0-0.4,0-0.8,0-1.2c0-0.2,0.1-0.3,0.2-0.2c1,0,2.1,0,3.1,0
		c0.2,0,0.2-0.1,0.2-0.2c0-0.2,0-0.3,0-0.5c0-0.2-0.1-0.2-0.2-0.2c-0.9,0-1.8,0-2.7,0c-0.2,0-0.3-0.1-0.3-0.3c0-0.3,0-0.7,0-1
		c0-0.2,0-0.3,0.2-0.2c0.9,0,1.8,0,2.7,0c0.2,0,0.3-0.1,0.3-0.3c0-0.6,0-0.6-0.6-0.6c-0.8,0-1.6,0-2.3,0c-0.2,0-0.2,0-0.2-0.2
		c0-0.4,0-0.8,0-1.3c0-0.1,0-0.2,0.2-0.2c0.9,0,1.9,0,2.8,0c0.2,0,0.3,0,0.2-0.2c0-0.2,0-0.3,0-0.5C42.5,5,42.5,5,42.7,5
		c0.5,0,1,0,1.6,0c0.1,0,0.2,0,0.2,0.2c0,0.2,0,0.4,0,0.5c0,0.2,0,0.2,0.2,0.2c0.9,0,1.9,0,2.8,0c0.2,0,0.2,0.1,0.2,0.2
		c0,0.4,0,0.8,0,1.2c0,0.2,0,0.3-0.2,0.2c-0.9,0-1.8,0-2.7,0c-0.2,0-0.3,0-0.3,0.3c0,0.2-0.1,0.5,0,0.6c0.1,0.1,0.4,0,0.6,0
		c0.7,0,1.5,0,2.2,0c0.2,0,0.2,0.1,0.2,0.2c0,0.3,0,0.7,0,1c0,0.2-0.1,0.2-0.2,0.2c-0.9,0-1.8,0-2.6,0c-0.2,0-0.3,0-0.2,0.2
		c0,0.2,0,0.3,0,0.5c0,0.2,0.1,0.2,0.2,0.2c0.9,0,1.8,0,2.7,0c0.2,0,0.3,0,0.3,0.3c0,0.4,0,0.8,0,1.1c0,0.2,0,0.2-0.2,0.2
		C46.1,12.5,44.7,12.5,43.3,12.5z"/>
</g>
</svg>
