<?xml version="1.0" encoding="utf-8"?>
<!-- Generator: Adobe Illustrator 23.1.1, SVG Export Plug-In . SVG Version: 6.00 Build 0)  -->
<svg version="1.1" id="レイヤー_1" xmlns="http://www.w3.org/2000/svg" xmlns:xlink="http://www.w3.org/1999/xlink" x="0px"
	 y="0px" viewBox="0 0 16 15" style="enable-background:new 0 0 16 15;" xml:space="preserve">
<style type="text/css">
	.st0{fill:#456DD1;}
</style>
<path class="st0" d="M12.5,0.7v3h-9v-3H12.5z M12.7,7.3c0.1,0.1,0.3,0.2,0.5,0.2c0.2,0,0.4-0.1,0.5-0.2C13.9,7.1,14,7,14,6.8
	c0-0.2-0.1-0.4-0.2-0.5C13.6,6.1,13.4,6,13.2,6c-0.2,0-0.4,0.1-0.5,0.2c-0.1,0.1-0.2,0.3-0.2,0.5C12.5,7,12.6,7.1,12.7,7.3z
	 M11,12.7V9H5v3.7H11z M13.2,4.5c0.6,0,1.1,0.2,1.6,0.7c0.4,0.4,0.7,1,0.7,1.6v4.5h-3v3h-9v-3h-3V6.8c0-0.6,0.2-1.1,0.7-1.6
	c0.4-0.4,1-0.7,1.6-0.7H13.2z"/>
</svg>
